<?xml version="1.0" standalone="no"?>
<!DOCTYPE svg PUBLIC "-//W3C//DTD SVG 20010904//EN"
 "http://www.w3.org/TR/2001/REC-SVG-20010904/DTD/svg10.dtd">
<svg version="1.0" xmlns="http://www.w3.org/2000/svg"
 width="512.000000pt" height="512.000000pt" viewBox="0 0 512.000000 512.000000"
 preserveAspectRatio="xMidYMid meet">

<g transform="translate(0.000000,512.000000) scale(0.100000,-0.100000)"
fill="#000000" stroke="none">
<path d="M2410 5109 c-894 -48 -1718 -586 -2123 -1387 -193 -380 -278 -735
-278 -1162 0 -433 90 -801 287 -1180 339 -649 943 -1124 1654 -1300 219 -54
370 -71 615 -71 429 0 798 91 1174 287 618 322 1072 875 1275 1554 109 365
128 830 50 1220 -115 571 -448 1116 -906 1481 -501 400 -1106 593 -1748 558z
m293 -709 c272 -636 498 -1095 1051 -2130 69 -129 124 -235 123 -236 -1 -1
-49 21 -107 49 -88 44 -150 67 -300 115 -8 3 33 -24 91 -60 119 -73 179 -116
329 -236 l105 -83 147 -272 c81 -149 145 -273 143 -275 -2 -2 -60 28 -129 67
-434 246 -794 404 -1098 481 l-128 33 8 41 c4 23 7 109 6 191 -1 172 -19 259
-80 380 -154 312 -444 317 -595 11 -64 -133 -82 -216 -82 -391 -1 -82 4 -168
10 -191 l10 -41 -100 -22 c-293 -66 -705 -244 -1140 -490 -71 -40 -130 -71
-132 -69 -2 2 34 73 82 158 492 886 1042 1916 1135 2128 30 68 48 86 64 61 13
-21 190 -132 297 -185 59 -30 107 -53 107 -51 0 2 -39 34 -86 72 -47 37 -133
113 -192 170 l-106 102 21 49 c12 27 64 146 115 264 51 118 136 322 188 452
52 130 98 234 102 230 4 -4 67 -149 141 -322z"/>
</g>
</svg>
